<?xml version="1.0" encoding="utf-8"?>
<!-- Generator: Adobe Illustrator 19.0.0, SVG Export Plug-In . SVG Version: 6.00 Build 0)  -->
<svg version="1.1" id="Capa_1" xmlns="http://www.w3.org/2000/svg" xmlns:xlink="http://www.w3.org/1999/xlink" x="0px" y="0px"
	 viewBox="-211 303.9 187.1 187.1" style="enable-background:new -211 303.9 187.1 187.1;" xml:space="preserve">
<g>
	<path d="M-112.2,367.9c-3.5-3.1-7.3-2.7-9.8,0c-1.9-2.6-4.6-13.2-4.6-16.6c-0.3,1.6-2.3,9.8-2.1,19.5c-14.2,0-26.7-16.3-26.7-27.3
		c-4.3,0.8-23.3,12.8-33,37.6c17.9-1.6,26.5,14.2,31.1,39c29-17.2,39.6,38.6,39.6,42.7c0-3.7,11.6-60.5,39.6-43.1
		c4.9-16.4,12.4-44.8,31.8-37.6c-4.1-12.4-20-36.4-31-38.4c-2,4.9-9.3,27.6-28.7,26.8c0.4-4.3-1.4-16.8-2.2-19.4
		C-108.8,354.9-110.5,365.1-112.2,367.9z"/>
</g>
</svg>
