<?xml version="1.0" encoding="utf-8"?>
<!-- Generator: Adobe Illustrator 19.0.0, SVG Export Plug-In . SVG Version: 6.00 Build 0)  -->
<svg version="1.1" id="Layer_1" xmlns="http://www.w3.org/2000/svg" xmlns:xlink="http://www.w3.org/1999/xlink" x="0px" y="0px"
	 viewBox="0 0 612 792" style="enable-background:new 0 0 612 792;" xml:space="preserve">
<path d="M6,394.4C5.1,232,138.6,96.5,300.6,95.7C468.5,94.9,602.5,226.4,603,393.5c0.5,165.1-132,295.1-291.5,298.8
	C147.6,696.1,7.2,565.6,6,394.4z M45.6,395.1c-0.2,141.1,115.7,256.2,258.3,256.4C446.8,651.7,562,537.6,562.8,395
	c0.8-140.3-116.1-256-258.6-256.1C161.8,138.8,45.8,253.7,45.6,395.1z"/>
<path d="M403,198.3c49.5,25.8,84.7,62.4,105.7,112c21.7,51.4,23.6,103.1,1.6,155.2c-18.6,44-42.9,84.2-78,117.2
	c-1.4,1.3-2.8,2.5-4.3,3.7c-0.3,0.2-0.8,0.2-1.7,0.5c13.9-23,23.7-47.3,27.7-73.6c2.3-14.8,2.5-29.4-7.5-42.2
	c-10.5-13.4-24.5-15.9-36.9-4.2c-8.7,8.1-15.2,18.5-22.3,27.3c-0.7-3.2-1.5-8-2.8-12.7c-5.9-20.3-20.8-24.2-35.4-8.9
	c-15,15.7-23.6,35.1-30,55.3c-5.7,18-9.7,36.6-14.1,53.2c-2-9.2-4-20.6-7.1-31.7c-6.6-24.4-15.8-47.9-31.2-68.3
	c-4-5.2-8.7-10.2-14-14c-10.3-7.3-20.4-4.3-26,7c-1.7,3.4-2.7,7.1-3.7,10.7c-1,3.6-1.6,7.3-2.3,10.8c-5.1-7.6-9.4-15.6-15.1-22.4
	c-7.7-9.2-17.2-17-30.2-12.3c-13.6,4.9-20.1,16.3-21.7,30.1c-1.8,15.2,1.2,30,6.6,44.1c6.5,17.2,14.3,34,21.3,50.3
	c-1.2-1-3.4-2.7-5.5-4.6c-2.1-1.9-4.3-3.8-6.2-5.8c-39.8-40.8-68.8-88.1-82.5-143.5c-12.9-51.8-1.1-100.5,24.8-146
	c21.6-38,52.8-66.3,93-87c-2.5,5.7-4.5,10.1-6.3,14.5c-8,20-15.3,40.5-10.6,62.3c2.1,9.6,6.9,19.4,13,27.2
	c12.7,16.2,35.4,16.1,49.2,0.8c7.8-8.7,12.6-18.7,13.6-30.7c2.5-30.5,5.5-61.1,8.4-93.6c1.4,3.1,2.2,4.6,2.8,6.1
	c4.3,11.8,8.3,23.8,12.9,35.5c0.8,2.1,4.1,4.5,6.4,4.6c24,1.3,24,1.2,31.9-21.3c2.7-7.8,5.6-15.5,9.7-23.2c1.5,14.4,3,28.8,4.5,43.3
	c1.7,16.8,2.7,33.7,5.1,50.4c1.1,8.1,3.4,16.4,7.2,23.6c10.2,19.3,33.9,22.3,49.2,6.7c12.6-12.8,17-28.7,16.3-46.3
	c-0.7-18-5.7-35.1-12.2-51.8C405.4,204.3,404.6,202.2,403,198.3z"/>
</svg>
