<?xml version="1.0" encoding="utf-8"?>
<!-- Generator: Adobe Illustrator 19.0.0, SVG Export Plug-In . SVG Version: 6.00 Build 0)  -->
<svg version="1.1" id="Layer_1" xmlns="http://www.w3.org/2000/svg" xmlns:xlink="http://www.w3.org/1999/xlink" x="0px" y="0px"
	 viewBox="0 0 612 792" style="enable-background:new 0 0 612 792;" xml:space="preserve">
<path d="M268.4,221.4c25.2,0,50.1,0,75.1,0c0.1,1.4,0.2,2.5,0.2,3.7c1.4,95.7,2.9,191.4,4,287.1c0.1,10.7,4.8,17,14,20.9
	c16.8,7,34,6.5,51.3,2.5c12.5-2.9,23.9-8.4,34.1-16.3c1.9-1.5,2.8-3.1,2.8-5.6c-0.1-85.7,0-171.5-0.1-257.2
	c0-14.5-7.4-21.8-21.8-21.8c-11.6,0-23.3,0-35.2,0c0-8.6,0-16.9,0-25.5c63.4,0,126.7,0,190.6,0c0.1,1.2,0.2,2.5,0.2,3.7
	c0,21,0,41.9,0.1,62.9c0,2.5-0.7,4-2.8,5.5c-6,4.2-12.1,8.3-17.8,13c-8,6.6-11.9,14.7-11.8,25.6c0.4,69.3,0.2,138.7,0.2,208
	c0,2.3,0,4-2.9,5C465,564,386.1,604.6,310.5,651.8c-3.3,2.1-5.6,2.2-9,0.1c-75.8-45.8-155.1-84.6-236.9-118.4
	c-3.1-1.3-4.2-2.8-4.2-6.2c0.1-69.7,0-139.5,0.2-209.2c0-8.6-2.7-15.6-8.8-21c-6.3-5.6-13.3-10.6-20.2-15.5
	c-2.5-1.7-3.3-3.5-3.2-6.4c0.1-20.6,0.1-41.2,0.1-61.7c0-1.4,0-2.8,0-4.4c63.8,0,127.1,0,190.7,0c0,8.5,0,16.9,0,25.6
	c-7.4,0-14.6,0-21.7,0c-5.2,0-10.5,0-15.7,0c-11.1,0.1-18.8,7.4-19.5,18.5c-0.1,1.4-0.1,2.9-0.1,4.3c0,85.1,0,170.2-0.1,255.2
	c0,3.2,0.9,5.3,3.5,7.2c24.8,17.5,51.8,23.1,81.2,14.4c3.4-1,6.7-3,9.7-5c4.9-3.2,7.3-7.8,7.4-13.9c0.6-45.5,1.3-91,2-136.4
	c0.8-51.6,1.6-103.3,2.3-154.9C268.3,223.2,268.4,222.4,268.4,221.4z"/>
</svg>
